<?xml version="1.0" encoding="utf-8"?>
<!-- Generator: Adobe Illustrator 26.1.0, SVG Export Plug-In . SVG Version: 6.00 Build 0)  -->
<svg version="1.1" id="Layer_1" xmlns="http://www.w3.org/2000/svg" xmlns:xlink="http://www.w3.org/1999/xlink" x="0px" y="0px"
	 viewBox="0 0 1214.4 546.5" style="enable-background:new 0 0 1214.4 546.5;" xml:space="preserve">
<style type="text/css">
	.st0{display:none;fill:#FFFFFF;}
	.st1{fill:#FFFFFF;}
	.st2{fill:#0F1231;}
	.st3{fill:#44C2CC;}
	.st4{fill:#343F49;}
	.st5{fill:#FDD700;}
	.st6{fill:#010101;}
</style>
<rect x="-3.4" y="1.3" class="st0" width="1220.8" height="545.1"/>
<g>
	<g>
		
			<rect id="logo_x5F_bg_00000173137145417757945630000016617352852545460099_" y="158.3" class="st1" width="1214.4" height="388.2"/>
		<g id="logo_x5F_text_00000127030860207888284060000000035281040101391744_">
			<g id="logo_x5F_text_x5F_shadow_00000158022072621077981860000000765978126410952889_">
				<g id="logo_x5F_text_00000047767262002339033030000001412796589044423080_">
					<g>
						<path class="st2" d="M231,439.6c-2.8,13.6-8.7,24.1-17.9,31.5s-20.9,11-35.2,11c-19.8,0-35.1-6.8-45.9-20.5
							c-10.8-13.6-16.1-32.9-16.1-57.9c0-25.8,5.4-45.4,16.1-58.8c10.8-13.4,26.6-20.1,47.5-20.1c14.7,0,26.4,3.4,35,10.2
							c8.6,6.8,13.9,16.7,15.8,29.7H277c-1.7-26.2-11-46.5-28-60.7s-40.1-21.4-69.5-21.4c-36,0-63.7,10.4-83,31.2
							c-19.3,20.8-28.9,50.8-28.9,90c0,38.4,9.4,68.1,28.3,89.3c18.9,21.2,45.3,31.8,79.4,31.8c29.6,0,53.6-7.7,71.9-23
							s28.3-36.1,30-62.3L231,439.6L231,439.6z"/>
						<path class="st2" d="M473.2,315.5c-20.4-21.8-47.7-32.8-82-32.8s-61.6,10.9-81.8,32.8c-20.2,21.8-30.4,51.3-30.4,88.4
							s10.1,66.5,30.4,88.4c20.2,21.8,47.5,32.8,81.8,32.8s61.6-10.9,82-32.8c20.4-21.8,30.5-51.3,30.5-88.4
							S493.5,337.3,473.2,315.5z M438.8,462.8c-11.3,14-27.2,20.9-47.6,20.9c-20.2,0-36-7-47.1-20.9c-11.2-14-16.8-33.6-16.8-59
							s5.6-45,16.8-59c11.2-14,26.9-20.9,47.1-20.9c20.5,0,36.3,7,47.6,20.9c11.3,14,16.9,33.6,16.9,59
							C455.8,429.2,450.1,448.9,438.8,462.8z"/>
						<path class="st2" d="M699.2,315.5c-20.4-21.8-47.7-32.8-82-32.8s-61.6,10.9-81.8,32.8c-20.2,21.8-30.4,51.3-30.4,88.4
							s10.1,66.5,30.4,88.4c20.2,21.8,47.5,32.8,81.8,32.8s61.6-10.9,82-32.8c20.4-21.8,30.5-51.3,30.5-88.4
							S719.5,337.3,699.2,315.5z M664.8,462.8c-11.3,14-27.2,20.9-47.6,20.9c-20.2,0-36-7-47.1-20.9c-11.2-14-16.8-33.6-16.8-59
							s5.6-45,16.8-59s26.9-20.9,47.1-20.9c20.5,0,36.3,7,47.6,20.9c11.3,14,16.9,33.6,16.9,59C681.8,429.2,676.1,448.9,664.8,462.8
							z"/>
						<polygon class="st2" points="788.2,476.1 788.2,288.8 740.9,288.8 740.9,518.6 900.4,518.6 900.4,476.1 						"/>
						<path class="st2" d="M1012.9,288.8h-54.7l-81.8,229.8h49.9l15-47.3h89.2l15.7,47.3h49.5L1012.9,288.8z M953.8,432.6l32-97.8
							l32,97.8L953.8,432.6L953.8,432.6z"/>
					</g>
				</g>
				<g>
					<g>
						<g>
							<path class="st2" d="M1124.3,470.5c0.5,0,1.1,0,1.7,0.1h0.4c3.6,0,6.4,1,8.4,3s3,4.8,3,8.3c0,2.3-0.5,4.3-1.5,5.9
								s-2.4,2.8-4.3,3.5c1.7,0.5,2.8,1.4,3.6,2.5c0.7,1.1,1.1,3,1.3,5.6l0.3,5.8v0.1c0.1,2.5,0.7,4.1,1.7,4.6v1.2h-7.6
								c-0.3-0.5-0.5-1.2-0.7-1.9c-0.2-0.7-0.3-1.9-0.3-3.5l-0.2-4.9c-0.1-2.6-0.7-4.3-1.6-5.2s-2.5-1.3-4.8-1.3h-1.3h-8.9V511h-6.7
								v-40.6L1124.3,470.5L1124.3,470.5z M1113.5,488.7h9.6c2.8,0,4.9-0.5,6.1-1.5s1.9-2.6,1.9-4.8c0-2.2-0.6-3.8-1.8-4.7
								c-1.2-1-3.2-1.4-6-1.4h-9.8L1113.5,488.7L1113.5,488.7z"/>
						</g>
					</g>
					<g>
						<g>
							<path class="st2" d="M1122.9,525.9c-19.3,0-35.1-15.7-35.1-35.1c0-19.3,15.7-35.1,35.1-35.1c19.3,0,35.1,15.7,35.1,35.1
								C1158,510.1,1142.2,525.9,1122.9,525.9z M1122.9,461.4c-16.2,0-29.4,13.2-29.4,29.4c0,16.2,13.2,29.4,29.4,29.4
								c16.2,0,29.4-13.2,29.4-29.4C1152.3,474.6,1139.1,461.4,1122.9,461.4z"/>
						</g>
					</g>
				</g>
			</g>
			<g id="logo_x5F_text_x5F_original_00000034063736045866470650000001791857122621101241_">
				<g id="COOLA_00000085242386090763149530000017871356775143636410_">
					<path class="st3" d="M219.8,445.3c-2.8,13.6-8.7,24.1-17.9,31.5s-20.9,11-35.2,11c-19.8,0-35.1-6.8-45.9-20.5
						c-10.8-13.6-16.1-32.9-16.1-57.9c0-25.8,5.4-45.4,16.1-58.8c10.8-13.4,26.6-20.1,47.5-20.1c14.7,0,26.4,3.4,35,10.2
						c8.6,6.8,13.9,16.7,15.8,29.7h46.7c-1.7-26.2-11-46.5-28-60.7c-16.9-14.3-40.1-21.4-69.5-21.4c-36,0-63.7,10.4-83,31.2
						c-19.3,20.8-28.9,50.8-28.9,90c0,38.4,9.4,68.1,28.3,89.3s45.3,31.8,79.4,31.8c29.6,0,53.6-7.7,71.9-23s28.3-36.1,30-62.3
						L219.8,445.3L219.8,445.3z"/>
					<path class="st3" d="M461.9,321.1c-20.4-21.8-47.7-32.8-82-32.8s-61.6,10.9-81.8,32.8c-20.2,21.8-30.4,51.3-30.4,88.4
						s10.1,66.5,30.4,88.4c20.2,21.8,47.5,32.8,81.8,32.8s61.6-10.9,82-32.8c20.4-21.8,30.5-51.3,30.5-88.4
						C492.4,372.4,482.3,342.9,461.9,321.1z M427.5,468.5c-11.3,14-27.2,20.9-47.6,20.9c-20.2,0-36-7-47.1-20.9
						c-11.2-14-16.8-33.6-16.8-59s5.6-45,16.8-59c11.2-14,26.9-20.9,47.1-20.9c20.5,0,36.3,7,47.6,20.9c11.3,14,16.9,33.6,16.9,59
						C444.5,434.8,438.8,454.5,427.5,468.5z"/>
					<path class="st3" d="M687.9,321.1c-20.4-21.8-47.7-32.8-82-32.8s-61.6,10.9-81.8,32.8c-20.2,21.8-30.4,51.3-30.4,88.4
						s10.1,66.5,30.4,88.4c20.2,21.8,47.5,32.8,81.8,32.8s61.6-10.9,82-32.8c20.4-21.8,30.5-51.3,30.5-88.4S708.3,342.9,687.9,321.1
						z M653.5,468.5c-11.3,14-27.2,20.9-47.6,20.9c-20.2,0-36-7-47.1-20.9c-11.2-14-16.8-33.6-16.8-59s5.6-45,16.8-59
						s26.9-20.9,47.1-20.9c20.5,0,36.3,7,47.6,20.9c11.3,14,16.9,33.6,16.9,59C670.5,434.8,664.8,454.5,653.5,468.5z"/>
					<polygon class="st3" points="776.9,481.7 776.9,294.4 729.6,294.4 729.6,524.2 889.1,524.2 889.1,481.7 					"/>
					<path class="st3" d="M1001.6,294.4H947l-81.8,229.8H915l15-47.3h89.2l15.7,47.3h49.5L1001.6,294.4z M942.5,438.3l32-97.8
						l32,97.8H942.5z"/>
				</g>
				<g id="R_00000129901826761778803720000001652990448141462927_">
					<g>
						<g>
							<path class="st3" d="M1118.7,472.4c0.5,0,1.1,0,1.7,0.1h0.4c3.6,0,6.4,1,8.4,3s3,4.8,3,8.3c0,2.3-0.5,4.3-1.5,5.9
								s-2.4,2.8-4.3,3.5c1.7,0.5,2.8,1.4,3.6,2.5c0.7,1.1,1.1,3,1.3,5.6l0.3,5.8v0.1c0.1,2.5,0.7,4.1,1.7,4.6v1.2h-7.6
								c-0.3-0.5-0.5-1.2-0.7-1.9c-0.2-0.7-0.3-1.9-0.3-3.5l-0.2-4.9c-0.1-2.6-0.7-4.3-1.6-5.2s-2.5-1.3-4.8-1.3h-1.3h-8.9V513h-6.7
								v-40.6H1118.7z M1107.8,490.6h9.6c2.8,0,4.9-0.5,6.1-1.5s1.9-2.6,1.9-4.8c0-2.2-0.6-3.8-1.8-4.7c-1.2-1-3.2-1.4-6-1.4h-9.8
								L1107.8,490.6L1107.8,490.6z"/>
						</g>
					</g>
					<g>
						<g>
							<path class="st3" d="M1117.2,527.8c-19.3,0-35.1-15.7-35.1-35.1c0-19.3,15.7-35.1,35.1-35.1c19.3,0,35.1,15.7,35.1,35.1
								C1152.3,512,1136.6,527.8,1117.2,527.8z M1117.2,463.2c-16.2,0-29.4,13.2-29.4,29.4s13.2,29.4,29.4,29.4s29.4-13.2,29.4-29.4
								S1133.5,463.2,1117.2,463.2z"/>
						</g>
					</g>
				</g>
			</g>
		</g>
	</g>
	<g id="key_x5F_icon_00000152955068231518296000000001947260301869254560_">
		<g id="key_x5F_background_00000010308772432451058240000013211990723559235755_">
			<path id="key_x5F_bg_x5F_2_00000101081352677488520710000004463460625296030103_" class="st4" d="M687.3,120.7
				C685,87.3,713.9,41,713.9,41l-22-41H635c-10.6,8.4-28,11.4-28,11.4l0,0c-3.1-0.6-17.9-3.8-27.4-11.3h-56.9l-22,41
				c0,0,28.9,46.3,26.6,79.7c-2.4,34.6-17.5,50.9-33.4,69.1c0,0,25.1,38.7,40.2,47.1c15.2,8.4,58.5,22.5,72.9,34.6l0,0
				c14.4-12.1,58.4-26.3,73.6-34.7c15.2-8.4,40.2-47.1,40.2-47.1C704.7,171.6,689.6,155.4,687.3,120.7z"/>
			<path id="key_x5F_bg_00000167359195646827919510000013505750255646691516_" class="st3" d="M606.8,255
				c-11.3-6.8-27-13.2-42.3-19.4c-9.8-4-19.1-7.8-24-10.5c-6.8-3.7-19.9-20.2-29.6-34c14.2-16.6,27.5-35.4,29.8-69.2
				c2-29.5-16.1-65.9-24.5-80.9l14.5-27h44.4c11.2,7.1,24.8,10.2,29.1,11c0.9,0.2,1.8,0.3,2.6,0.3c1,0,2-0.1,2.9-0.3
				c3.4-0.6,17.7-3.7,29.4-11.1h44.4l14.5,27c-8.4,15.1-26.6,51.4-24.5,80.9c2.3,33.8,15.6,52.6,29.8,69.2
				c-9.7,13.8-22.8,30.3-29.6,34c-4.9,2.7-14.4,6.5-24.4,10.6C634,241.8,618.2,248.2,606.8,255z"/>
		</g>
		<path id="key_00000074425660089037228570000008304962921634257290_" class="st5" d="M617.6,174.6c1-2.1,0-4.9-2.4-7.6
			c2.8,0.1,5-0.7,5.8-2.4c1-2-0.2-4.9-2.9-7.5l56.3-97.6l-14-8.1l-4.6,8l-8.1-4.7l-8.2,14.2l-5.7-3.3l4.1-7.1L621,48.7l-4.4,7.6
			L611,53l8.5-14.7l-11.6-6.7L573,92l11.6,6.7l8-13.8l5.7,3.3l-4.2,7.3l16.9,9.8l4.5-7.8l5.7,3.3l-8.3,14.4l8.1,4.7L603.5,150
			c-3.4-0.3-6.1,0.5-7,2.3c-0.7,1.5-0.2,3.5,1.2,5.5c-4-0.5-7.1,0.4-8.3,2.5c-18.3-4-36,2-43.1,16c-8.8,17.5,2.2,40.9,24.6,52.2
			c22.4,11.3,47.8,6.3,56.6-11.2c6.7-13.2,2-29.8-10.3-42C617.3,175.1,617.5,174.8,617.6,174.6z M618.2,84.7l-2.5-1.4l-0.3-0.2
			L609,94.4l-4.6-2.7l6.5-11.3l-3.1-1.8l5.7-9.8l3.1,1.8l6.6-11.5l4.6,2.7l-6.6,11.5l0.3,0.2l2.5,1.4L618.2,84.7z M610.9,209
			c-5.3,10.4-20.3,13.4-33.6,6.6c-13.3-6.7-19.9-20.6-14.6-31c2.7-5.4,8.1-8.8,14.5-9.9c3.5,1,7.7,3.4,5,9c-4.4,9-9.2,1.1-9.2,1.1
			s-0.4,13.9,13.9,13.1c6.5,11.7,17.9,4.8,17.9,4.8s-9.3-0.2-3.7-8.5c3.5-5.1,7.6-2.7,10.2-0.2C613.3,199,613.3,204.4,610.9,209z"/>
		<g id="key_x5F_shadow_00000173873110005756193930000002587945330263035317_">
			<rect x="570.8" y="67.4" transform="matrix(0.5 -0.866 0.866 0.5 240.2947 554.045)" class="st6" width="58.4" height="3"/>
			<rect x="608.5" y="88.8" transform="matrix(0.5 -0.866 0.866 0.5 240.6562 597.4171)" class="st6" width="58.4" height="3"/>
			<path class="st6" d="M666.9,61.4l-50.8,87.9c-2.7,1-5.7,1.1-5.7,1.1l3.7,2.3v0.1l2.6,1.5l52.8-91.4L666.9,61.4z"/>
			<polygon class="st6" points="613.4,164.9 601,157.7 600.7,154.5 616.9,163.8 			"/>
			<polygon class="st6" points="612.3,169.9 597.9,161.8 594.8,163.1 613.4,173.6 			"/>
			<path class="st6" d="M576.9,172.4c0,0-17.3-2.2-18.7,19.2C558.1,191.6,551.6,166.9,576.9,172.4z"/>
			<path class="st6" d="M596.7,198c0,0-4-14.8,9.9-10C606.5,188.1,599,185.9,596.7,198"/>
			<path class="st6" d="M621.8,194.8c0,0,5.4,35-35.6,34.3C586.2,229.1,631.1,239.1,621.8,194.8z"/>
		</g>
	</g>
</g>
</svg>
