<?xml version="1.0" encoding="utf-8"?>
<!-- Generator: Adobe Illustrator 26.0.3, SVG Export Plug-In . SVG Version: 6.00 Build 0)  -->
<svg version="1.1" id="Layer_1" xmlns="http://www.w3.org/2000/svg" xmlns:xlink="http://www.w3.org/1999/xlink" x="0px" y="0px"
	 viewBox="0 0 30 30" style="enable-background:new 0 0 30 30;" xml:space="preserve">
<style type="text/css">
	.st0{fill:#FFFFFF;}
</style>
<path class="st0" d="M24.4,0c1.6,0,2.9,0.6,4,1.7s1.7,2.4,1.7,4v18.8c0,1.6-0.6,2.9-1.7,4s-2.4,1.7-4,1.7h-3.7V18.4h3.9l0.6-4.5
	h-4.5V11c0-0.7,0.2-1.3,0.5-1.6C21.5,9,22.1,8.9,23,8.9h2.4V4.7c-0.8-0.1-2-0.2-3.5-0.2c-1.8,0-3.2,0.5-4.3,1.6S16,8.6,16,10.5v3.3
	h-3.9v4.5H16V30H5.6c-1.6,0-2.9-0.6-4-1.7s-1.7-2.4-1.7-4V5.6c0-1.6,0.6-2.9,1.7-4S4.1,0,5.6,0H24.4z"/>
</svg>
