<?xml version="1.0" encoding="utf-8"?>
<!-- Generator: Adobe Illustrator 26.0.3, SVG Export Plug-In . SVG Version: 6.00 Build 0)  -->
<svg version="1.1" id="Layer_1" xmlns="http://www.w3.org/2000/svg" xmlns:xlink="http://www.w3.org/1999/xlink" x="0px" y="0px"
	 viewBox="0 0 30 30" style="enable-background:new 0 0 30 30;" xml:space="preserve">
<style type="text/css">
	.st0{fill:#FFFFFF;}
</style>
<path class="st0" d="M25.2,0H4.8C2.2,0,0,2.2,0,4.8v20.3C0,27.8,2.2,30,4.8,30h20.3c2.7,0,4.9-2.2,4.9-4.9V4.8C30,2.2,27.8,0,25.2,0
	z M25.6,8.5c-0.5,0.7-1.1,1.4-1.8,1.9c-0.1,0.1-0.2,0.3-0.2,0.4c0.1,2.7-0.7,5.4-2.3,7.6c-1.9,2.8-4.8,4.7-8.2,5.1
	c-2.7,0.5-5.6,0-8-1.3c-0.3-0.1-0.5-0.3-0.8-0.5l0-0.1c2.3,0.2,4.6-0.4,6.4-1.8c-0.3,0-0.5-0.1-0.7-0.1c-1.5-0.3-2.7-1.3-3.3-2.7
	c-0.1-0.2-0.1-0.3,0.2-0.2c0.5,0.1,1.1,0,1.6-0.1c-0.5-0.1-0.9-0.3-1.3-0.6c-1.2-0.8-2-2-2.1-3.5v-0.1c0-0.3,0-0.3,0.3-0.2
	c0.5,0.3,1.1,0.4,1.7,0.4c-0.2-0.2-0.4-0.4-0.6-0.6C5,11,4.7,8.9,5.6,7.2C5.7,7,5.7,7,5.9,7.2c1.1,1.3,2.4,2.3,3.9,3.1
	c1.4,0.8,3,1.2,4.7,1.3c0.4,0,0.4,0,0.4-0.4c-0.3-2.4,1.4-4.7,3.9-5c1.3-0.2,2.6,0.3,3.6,1.2c0.1,0.1,0.3,0.2,0.4,0.1
	c0.8-0.2,1.6-0.5,2.3-0.9c0.1,0,0.1-0.1,0.2-0.1c-0.3,0.9-0.9,1.8-1.8,2.3c0.8-0.1,1.6-0.3,2.3-0.6C25.7,8.4,25.7,8.5,25.6,8.5z"/>
</svg>
