<?xml version="1.0" encoding="utf-8"?>
<!-- Generator: Adobe Illustrator 26.0.3, SVG Export Plug-In . SVG Version: 6.00 Build 0)  -->
<svg version="1.1" id="Layer_1" xmlns="http://www.w3.org/2000/svg" xmlns:xlink="http://www.w3.org/1999/xlink" x="0px" y="0px"
	 viewBox="0 0 30 30" style="enable-background:new 0 0 30 30;" xml:space="preserve">
<style type="text/css">
	.st0{fill:#FFFFFF;}
</style>
<g>
	<path class="st0" d="M12.7,25.6c0.4,0.1,0.9,0.2,1.4,0.2v-4.6H9.8C10.5,22.9,11.5,24.4,12.7,25.6z"/>
	<path class="st0" d="M9.2,19.4h4.9v-3.6H8.6C8.7,17.1,8.9,18.3,9.2,19.4z"/>
	<path class="st0" d="M8.6,14.1h5.5l0-3.6H9.2C8.9,11.7,8.7,12.9,8.6,14.1z"/>
	<path class="st0" d="M6.1,21.2c0.9,1.3,2.1,2.4,3.4,3.2c-0.6-1-1.2-2.1-1.6-3.2H6.1z"/>
	<path class="st0" d="M17.3,4.4c-0.5-0.1-0.9-0.2-1.4-0.2v4.6h4.3C19.5,7.1,18.5,5.6,17.3,4.4z"/>
	<path class="st0" d="M9.5,5.6C8.1,6.4,7,7.5,6.1,8.8h1.9C8.3,7.7,8.9,6.6,9.5,5.6z"/>
	<path class="st0" d="M14.1,4.2c-0.5,0-0.9,0.1-1.4,0.2c-1.2,1.2-2.2,2.7-2.9,4.4h4.3V4.2z"/>
	<path class="st0" d="M7.4,10.6H5.1c-0.5,1.1-0.8,2.3-0.9,3.6h2.7C6.9,12.9,7.1,11.7,7.4,10.6z"/>
	<path class="st0" d="M6.9,15.9H4.2c0.1,1.2,0.4,2.4,0.9,3.6h2.3C7.1,18.3,6.9,17.1,6.9,15.9z"/>
	<path class="st0" d="M23.1,14.1h2.7c-0.1-1.2-0.4-2.4-0.9-3.6h-2.3C22.9,11.7,23.1,12.9,23.1,14.1z"/>
	<path class="st0" d="M22.6,19.4h2.3c0.5-1.1,0.8-2.3,0.9-3.6h-2.7C23.1,17.1,22.9,18.3,22.6,19.4z"/>
	<path class="st0" d="M20.5,5.6c0.6,1,1.1,2,1.6,3.2h1.9C23,7.5,21.9,6.4,20.5,5.6z"/>
	<path class="st0" d="M25.2,0H4.8C2.2,0,0,2.2,0,4.8v20.3C0,27.8,2.2,30,4.8,30h20.3c2.7,0,4.9-2.2,4.9-4.9V4.8
		C30,2.2,27.8,0,25.2,0z M15,27.6C8,27.6,2.4,22,2.4,15S8,2.4,15,2.4S27.6,8,27.6,15S22,27.6,15,27.6z"/>
	<path class="st0" d="M20.8,10.6h-4.9v3.6h5.5C21.3,12.9,21.1,11.7,20.8,10.6z"/>
	<path class="st0" d="M20.5,24.4c1.4-0.8,2.5-1.9,3.4-3.2h-1.9C21.7,22.3,21.1,23.4,20.5,24.4z"/>
	<path class="st0" d="M15.9,25.8c0.5,0,0.9-0.1,1.4-0.2c1.2-1.2,2.2-2.7,2.9-4.4h-4.3V25.8z"/>
	<path class="st0" d="M21.4,15.9h-5.5v3.6h4.9C21.1,18.3,21.3,17.1,21.4,15.9z"/>
</g>
</svg>
