<?xml version="1.0" encoding="utf-8"?>
<!-- Generator: Adobe Illustrator 26.1.0, SVG Export Plug-In . SVG Version: 6.00 Build 0)  -->
<svg version="1.1" id="Layer_1" xmlns="http://www.w3.org/2000/svg" xmlns:xlink="http://www.w3.org/1999/xlink" x="0px" y="0px"
	 viewBox="0 0 68.5 68.5" style="enable-background:new 0 0 68.5 68.5;" xml:space="preserve">
<style type="text/css">
	.st0{fill:#E3F4FD;}
	.st1{fill:#36B6C0;}
</style>
<g id="back_x5F_to_x5F_top">
	<path id="up_x5F_arrowBG" class="st0" d="M57.8,68.5H10.7C4.8,68.5,0,63.7,0,57.8V10.7C0,4.8,4.8,0,10.7,0h47.2
		c5.9,0,10.7,4.8,10.7,10.7v47.2C68.5,63.7,63.7,68.5,57.8,68.5z"/>
	<g id="up_x5F_arrow">
		<g>
			<path class="st1" d="M34.3,60.5c-1.1,0-2-0.9-2-2v-34c0-1.1,0.9-2,2-2s2,0.9,2,2v34C36.3,59.6,35.4,60.5,34.3,60.5z"/>
		</g>
		<path class="st1" d="M53.4,26.4L35.7,8.6c-0.1-0.1-0.3-0.2-0.5-0.3c-0.3-0.2-0.6-0.3-1-0.3c-0.3,0-0.5,0-0.8,0.1
			c-0.2,0.1-0.5,0.2-0.7,0.4L15.1,26.4c-0.8,0.8-0.8,2,0,2.8c0.4,0.4,0.9,0.6,1.4,0.6s1-0.2,1.4-0.6l16.3-16.3l16.3,16.3
			c0.4,0.4,0.9,0.6,1.4,0.6s1-0.2,1.4-0.6C54.2,28.4,54.2,27.1,53.4,26.4z"/>
	</g>
</g>
</svg>
