<?xml version="1.0" encoding="utf-8"?>
<!-- Generator: Adobe Illustrator 26.0.3, SVG Export Plug-In . SVG Version: 6.00 Build 0)  -->
<svg version="1.1" id="Layer_1" xmlns="http://www.w3.org/2000/svg" xmlns:xlink="http://www.w3.org/1999/xlink" x="0px" y="0px"
	 viewBox="0 0 30 30" style="enable-background:new 0 0 30 30;" xml:space="preserve">
<style type="text/css">
	.st0{fill:#FFFFFF;}
</style>
<path class="st0" d="M25.1,29.9H4.9c-2.7,0-4.9-2.2-4.9-4.8V4.9c0-2.7,2.2-4.8,4.9-4.8h20.3c2.7,0,4.8,2.2,4.8,4.8v20.2
	C30,27.8,27.8,29.9,25.1,29.9z M10.1,6.2h10.1c2.1,0,3.9,1.7,3.9,3.9v10.1c0,2.1-1.7,3.9-3.9,3.9H10.1c-2.1,0-3.9-1.7-3.9-3.9V10.1
	C6.2,8,7.9,6.2,10.1,6.2z M10.1,3.9c-3.4,0-6.2,2.8-6.2,6.2v10.1c0,3.4,2.8,6.2,6.2,6.2h10.1c3.4,0,6.2-2.8,6.2-6.2V10.1
	c0-3.4-2.8-6.2-6.2-6.2H10.1z M15.1,20.5c3,0,5.4-2.4,5.4-5.4s-2.4-5.4-5.4-5.4s-5.4,2.4-5.4,5.4S12.1,20.5,15.1,20.5z M15.1,18.2
	c-1.7,0-3.1-1.4-3.1-3.1s1.4-3.1,3.1-3.1c1.7,0,3.1,1.4,3.1,3.1S16.8,18.2,15.1,18.2z M20.9,10.9c0.9,0,1.5-0.7,1.5-1.5
	s-0.7-1.5-1.5-1.5c-0.9,0-1.5,0.7-1.5,1.5S20,10.9,20.9,10.9z"/>
</svg>
