<?xml version="1.0" encoding="utf-8"?>
<!-- Generator: Adobe Illustrator 26.0.3, SVG Export Plug-In . SVG Version: 6.00 Build 0)  -->
<svg version="1.1" id="Layer_1" xmlns="http://www.w3.org/2000/svg" xmlns:xlink="http://www.w3.org/1999/xlink" x="0px" y="0px"
	 viewBox="0 0 99.6 47.8" style="enable-background:new 0 0 99.6 47.8;" xml:space="preserve">
<style type="text/css">
	.st0{fill:#FFFFFF;}
	.st1{fill:#0F1231;}
	.st2{fill:#45C2CC;}
	.st3{fill:#343F49;}
	.st4{fill:#77CDD3;}
	.st5{fill:#FDD700;}
	.st6{fill:#010101;}
</style>
<g id="header_x5F_logo">
	<g>
		<rect id="logo_x5F_bg" y="13.9" class="st0" width="99.6" height="34"/>
		<g id="logo_x5F_text_00000101087513223905125240000018285656545974415028_">
			<g id="logo_x5F_text_x5F_shadow">
				<g id="logo_x5F_text_00000106839297519909753240000013159492716319748750_">
					<g>
						<path class="st1" d="M16.8,38.5c-0.2,1.2-0.8,2.1-1.6,2.8c-0.8,0.6-1.8,1-3.1,1c-1.7,0-3.1-0.6-4-1.8
							c-0.9-1.2-1.4-2.9-1.4-5.1c0-2.3,0.5-4,1.4-5.1c0.9-1.2,2.3-1.8,4.2-1.8c1.3,0,2.3,0.3,3.1,0.9c0.8,0.6,1.2,1.5,1.4,2.6h4.1
							c-0.1-2.3-1-4.1-2.4-5.3s-3.5-1.9-6.1-1.9c-3.2,0-5.6,0.9-7.3,2.7c-1.7,1.8-2.5,4.4-2.5,7.9c0,3.4,0.8,6,2.5,7.8
							C6.7,45,9,46,12,46c2.6,0,4.7-0.7,6.3-2c1.6-1.3,2.5-3.2,2.6-5.5H16.8z"/>
						<path class="st1" d="M38,27.6c-1.8-1.9-4.2-2.9-7.2-2.9c-3,0-5.4,1-7.2,2.9c-1.8,1.9-2.7,4.5-2.7,7.7c0,3.2,0.9,5.8,2.7,7.7
							c1.8,1.9,4.2,2.9,7.2,2.9c3,0,5.4-1,7.2-2.9c1.8-1.9,2.7-4.5,2.7-7.7C40.7,32.1,39.8,29.5,38,27.6z M35,40.5
							c-1,1.2-2.4,1.8-4.2,1.8c-1.8,0-3.1-0.6-4.1-1.8c-1-1.2-1.5-2.9-1.5-5.2c0-2.2,0.5-3.9,1.5-5.2c1-1.2,2.4-1.8,4.1-1.8
							c1.8,0,3.2,0.6,4.2,1.8c1,1.2,1.5,2.9,1.5,5.2C36.5,37.6,36,39.3,35,40.5z"/>
						<path class="st1" d="M57.8,27.6c-1.8-1.9-4.2-2.9-7.2-2.9c-3,0-5.4,1-7.2,2.9c-1.8,1.9-2.7,4.5-2.7,7.7c0,3.2,0.9,5.8,2.7,7.7
							c1.8,1.9,4.2,2.9,7.2,2.9c3,0,5.4-1,7.2-2.9c1.8-1.9,2.7-4.5,2.7-7.7C60.5,32.1,59.6,29.5,57.8,27.6z M54.8,40.5
							c-1,1.2-2.4,1.8-4.2,1.8c-1.8,0-3.1-0.6-4.1-1.8c-1-1.2-1.5-2.9-1.5-5.2c0-2.2,0.5-3.9,1.5-5.2c1-1.2,2.4-1.8,4.1-1.8
							c1.8,0,3.2,0.6,4.2,1.8c1,1.2,1.5,2.9,1.5,5.2C56.3,37.6,55.8,39.3,54.8,40.5z"/>
						<polygon class="st1" points="65.6,41.7 65.6,25.3 61.5,25.3 61.5,45.4 75.4,45.4 75.4,41.7 						"/>
						<path class="st1" d="M85.3,25.3h-4.8l-7.2,20.1h4.4l1.3-4.1h7.8l1.4,4.1h4.3L85.3,25.3z M80.1,37.9l2.8-8.6l2.8,8.6H80.1z"/>
					</g>
				</g>
				<g>
					<g>
						<g>
							<path class="st1" d="M95,41.2c0,0,0.1,0,0.2,0h0c0.3,0,0.6,0.1,0.7,0.3c0.2,0.2,0.3,0.4,0.3,0.7c0,0.2,0,0.4-0.1,0.5
								c-0.1,0.1-0.2,0.2-0.4,0.3c0.1,0,0.2,0.1,0.3,0.2c0.1,0.1,0.1,0.3,0.1,0.5l0,0.5v0c0,0.2,0.1,0.4,0.1,0.4v0.1h-0.7
								c0,0,0-0.1-0.1-0.2s0-0.2,0-0.3l0-0.4c0-0.2-0.1-0.4-0.1-0.5c-0.1-0.1-0.2-0.1-0.4-0.1h-0.1h-0.8v1.5h-0.6v-3.6H95z
								 M94.1,42.8h0.8c0.2,0,0.4,0,0.5-0.1c0.1-0.1,0.2-0.2,0.2-0.4c0-0.2-0.1-0.3-0.2-0.4c-0.1-0.1-0.3-0.1-0.5-0.1h-0.9V42.8z"/>
						</g>
					</g>
					<g>
						<g>
							<path class="st1" d="M94.9,46c-1.7,0-3.1-1.4-3.1-3.1c0-1.7,1.4-3.1,3.1-3.1c1.7,0,3.1,1.4,3.1,3.1C98,44.7,96.6,46,94.9,46z
								 M94.9,40.4c-1.4,0-2.6,1.2-2.6,2.6s1.2,2.6,2.6,2.6s2.6-1.2,2.6-2.6S96.3,40.4,94.9,40.4z"/>
						</g>
					</g>
				</g>
			</g>
			<g id="logo_x5F_text_x5F_original">
				<g id="COOLA">
					<path class="st2" d="M15.9,39c-0.2,1.2-0.8,2.1-1.6,2.8c-0.8,0.6-1.8,1-3.1,1c-1.7,0-3.1-0.6-4-1.8c-0.9-1.2-1.4-2.9-1.4-5.1
						c0-2.3,0.5-4,1.4-5.1c0.9-1.2,2.3-1.8,4.2-1.8c1.3,0,2.3,0.3,3.1,0.9c0.8,0.6,1.2,1.5,1.4,2.6h4.1c-0.1-2.3-1-4.1-2.4-5.3
						c-1.5-1.2-3.5-1.9-6.1-1.9c-3.2,0-5.6,0.9-7.3,2.7c-1.7,1.8-2.5,4.4-2.5,7.9c0,3.4,0.8,6,2.5,7.8c1.7,1.9,4,2.8,7,2.8
						c2.6,0,4.7-0.7,6.3-2c1.6-1.3,2.5-3.2,2.6-5.5H15.9z"/>
					<path class="st2" d="M37.1,28.1c-1.8-1.9-4.2-2.9-7.2-2.9c-3,0-5.4,1-7.2,2.9c-1.8,1.9-2.7,4.5-2.7,7.7c0,3.2,0.9,5.8,2.7,7.7
						c1.8,1.9,4.2,2.9,7.2,2.9c3,0,5.4-1,7.2-2.9c1.8-1.9,2.7-4.5,2.7-7.7C39.7,32.6,38.8,30,37.1,28.1z M34.1,41
						c-1,1.2-2.4,1.8-4.2,1.8c-1.8,0-3.1-0.6-4.1-1.8c-1-1.2-1.5-2.9-1.5-5.2c0-2.2,0.5-3.9,1.5-5.2c1-1.2,2.4-1.8,4.1-1.8
						c1.8,0,3.2,0.6,4.2,1.8c1,1.2,1.5,2.9,1.5,5.2C35.5,38.1,35,39.8,34.1,41z"/>
					<path class="st2" d="M56.8,28.1c-1.8-1.9-4.2-2.9-7.2-2.9c-3,0-5.4,1-7.2,2.9c-1.8,1.9-2.7,4.5-2.7,7.7c0,3.2,0.9,5.8,2.7,7.7
						c1.8,1.9,4.2,2.9,7.2,2.9c3,0,5.4-1,7.2-2.9c1.8-1.9,2.7-4.5,2.7-7.7C59.5,32.6,58.6,30,56.8,28.1z M53.8,41
						c-1,1.2-2.4,1.8-4.2,1.8c-1.8,0-3.1-0.6-4.1-1.8c-1-1.2-1.5-2.9-1.5-5.2c0-2.2,0.5-3.9,1.5-5.2c1-1.2,2.4-1.8,4.1-1.8
						c1.8,0,3.2,0.6,4.2,1.8c1,1.2,1.5,2.9,1.5,5.2C55.3,38.1,54.8,39.8,53.8,41z"/>
					<polygon class="st2" points="64.6,42.2 64.6,25.8 60.5,25.8 60.5,45.9 74.5,45.9 74.5,42.2 					"/>
					<path class="st2" d="M84.3,25.8h-4.8l-7.2,20.1h4.4l1.3-4.1h7.8l1.4,4.1h4.3L84.3,25.8z M79.1,38.4l2.8-8.6l2.8,8.6H79.1z"/>
				</g>
				<g id="R">
					<g>
						<g>
							<path class="st2" d="M94.6,41.4c0,0,0.1,0,0.2,0h0c0.3,0,0.6,0.1,0.7,0.3c0.2,0.2,0.3,0.4,0.3,0.7c0,0.2,0,0.4-0.1,0.5
								c-0.1,0.1-0.2,0.2-0.4,0.3c0.1,0,0.2,0.1,0.3,0.2c0.1,0.1,0.1,0.3,0.1,0.5l0,0.5v0c0,0.2,0.1,0.4,0.1,0.4v0.1h-0.7
								c0,0,0-0.1-0.1-0.2c0-0.1,0-0.2,0-0.3l0-0.4c0-0.2-0.1-0.4-0.1-0.5c-0.1-0.1-0.2-0.1-0.4-0.1h-0.1h-0.8v1.5H93v-3.6H94.6z
								 M93.6,42.9h0.8c0.2,0,0.4,0,0.5-0.1c0.1-0.1,0.2-0.2,0.2-0.4c0-0.2-0.1-0.3-0.2-0.4c-0.1-0.1-0.3-0.1-0.5-0.1h-0.9V42.9z"/>
						</g>
					</g>
					<g>
						<g>
							<path class="st2" d="M94.4,46.2c-1.7,0-3.1-1.4-3.1-3.1c0-1.7,1.4-3.1,3.1-3.1c1.7,0,3.1,1.4,3.1,3.1
								C97.5,44.8,96.1,46.2,94.4,46.2z M94.4,40.6c-1.4,0-2.6,1.2-2.6,2.6c0,1.4,1.2,2.6,2.6,2.6c1.4,0,2.6-1.2,2.6-2.6
								C97,41.7,95.9,40.6,94.4,40.6z"/>
						</g>
					</g>
				</g>
			</g>
		</g>
	</g>
	<g id="key_x5F_icon_00000141446672604843091330000011154545671611319740_">
		<g id="key_x5F_background_00000118386419420532151140000006517034250421640081_">
			<path id="key_x5F_bg_x5F_2_00000139256670900841347500000007593942542367095193_" class="st3" d="M56.8,10.6
				c-0.2-2.9,2.3-7,2.3-7L57.2,0h-5c-0.9,0.7-2.5,1-2.5,1v0c-0.3-0.1-1.6-0.3-2.4-1h-5l-1.9,3.6c0,0,2.5,4.1,2.3,7
				c-0.2,3-1.5,4.5-2.9,6c0,0,2.2,3.4,3.5,4.1c1.3,0.7,5.1,2,6.4,3v0c1.3-1.1,5.1-2.3,6.4-3c1.3-0.7,3.5-4.1,3.5-4.1
				C58.3,15,57,13.6,56.8,10.6z"/>
			<path id="key_x5F_bg_00000173870747583588793210000001926351323091653032_" class="st4" d="M49.7,22.3c-1-0.6-2.4-1.2-3.7-1.7
				c-0.9-0.4-1.7-0.7-2.1-0.9c-0.6-0.3-1.7-1.8-2.6-3c1.2-1.5,2.4-3.1,2.6-6.1c0.2-2.6-1.4-5.8-2.1-7.1l1.3-2.4H47
				c1,0.6,2.2,0.9,2.5,1c0.1,0,0.2,0,0.2,0c0.1,0,0.2,0,0.3,0c0.3-0.1,1.5-0.3,2.6-1h3.9l1.3,2.4c-0.7,1.3-2.3,4.5-2.1,7.1
				c0.2,3,1.4,4.6,2.6,6.1c-0.8,1.2-2,2.6-2.6,3c-0.4,0.2-1.3,0.6-2.1,0.9C52.1,21.2,50.7,21.7,49.7,22.3z"/>
		</g>
		<path id="key_00000011712218200513563640000006378715435865988797_" class="st5" d="M50.7,15.3c0.1-0.2,0-0.4-0.2-0.7
			c0.2,0,0.4-0.1,0.5-0.2c0.1-0.2,0-0.4-0.3-0.7l4.9-8.5l-1.2-0.7L54,5.2l-0.7-0.4L52.6,6l-0.5-0.3l0.4-0.6L51,4.3l-0.4,0.7
			l-0.5-0.3l0.7-1.3l-1-0.6l-3.1,5.3l1,0.6l0.7-1.2L49,7.7l-0.4,0.6l1.5,0.9l0.4-0.7L51,8.8l-0.7,1.3l0.7,0.4l-1.5,2.7
			c-0.3,0-0.5,0-0.6,0.2c-0.1,0.1,0,0.3,0.1,0.5c-0.3,0-0.6,0-0.7,0.2c-1.6-0.4-3.2,0.2-3.8,1.4C43.7,17,44.6,19,46.6,20
			c2,1,4.2,0.6,5-1C52.1,17.9,51.7,16.4,50.7,15.3C50.7,15.3,50.7,15.3,50.7,15.3z M50.7,7.4l-0.2-0.1l0,0l-0.6,1L49.5,8l0.6-1
			l-0.3-0.2L50.3,6l0.3,0.2l0.6-1l0.4,0.2l-0.6,1l0,0l0.2,0.1L50.7,7.4z M50.1,18.3c-0.5,0.9-1.8,1.2-2.9,0.6
			c-1.2-0.6-1.7-1.8-1.3-2.7c0.2-0.5,0.7-0.8,1.3-0.9c0.3,0.1,0.7,0.3,0.4,0.8c-0.4,0.8-0.8,0.1-0.8,0.1s0,1.2,1.2,1.1
			c0.6,1,1.6,0.4,1.6,0.4s-0.8,0-0.3-0.7c0.3-0.4,0.7-0.2,0.9,0C50.3,17.4,50.3,17.9,50.1,18.3z"/>
		<g id="key_x5F_shadow_00000021084733738699626630000011748331390258887578_">
			<rect x="49" y="3.5" transform="matrix(0.866 0.5 -0.5 0.866 9.5994 -23.7646)" class="st6" width="0.3" height="5.1"/>
			<rect x="52.3" y="5.4" transform="matrix(0.866 0.5 -0.5 0.866 10.9821 -25.1661)" class="st6" width="0.3" height="5.1"/>
			<path class="st6" d="M55,5.4l-4.4,7.7c-0.2,0.1-0.5,0.1-0.5,0.1l0.3,0.2l0,0l0.2,0.1l4.6-8L55,5.4z"/>
			<polygon class="st6" points="50.3,14.4 49.2,13.8 49.2,13.5 50.6,14.3 			"/>
			<polygon class="st6" points="50.2,14.9 49,14.2 48.7,14.3 50.3,15.2 			"/>
			<path class="st6" d="M47.1,15.1c0,0-1.5-0.2-1.6,1.7C45.5,16.8,44.9,14.6,47.1,15.1z"/>
			<path class="st6" d="M48.9,17.3c0,0-0.3-1.3,0.9-0.9C49.7,16.5,49.1,16.3,48.9,17.3"/>
			<path class="st6" d="M51.1,17.1c0,0,0.5,3.1-3.1,3C47.9,20.1,51.9,20.9,51.1,17.1z"/>
		</g>
	</g>
</g>
</svg>
