<?xml version="1.0" encoding="utf-8"?>
<!-- Generator: Adobe Illustrator 26.1.0, SVG Export Plug-In . SVG Version: 6.00 Build 0)  -->
<svg version="1.1" id="Layer_1" xmlns="http://www.w3.org/2000/svg" xmlns:xlink="http://www.w3.org/1999/xlink" x="0px" y="0px"
	 viewBox="0 0 500.5 200.3" style="enable-background:new 0 0 500.5 200.3;" xml:space="preserve">
<style type="text/css">
	.st0{fill:#E8F6FD;}
	.st1{fill:#E58774;}
</style>
<g>
	<rect class="st0" width="500.5" height="200.3"/>
	<g>
		<path class="st1" d="M100.7,47.2l12.7,36h-9.9l-2.2-6.6h-12l-2,6.6h-9.6l13-36H100.7z M99.4,69.1l-4-12.4l-3.9,12.4H99.4z"/>
		<path class="st1" d="M131.6,47.2h12.7l4.8,17.5c0.4,1.5,0.8,3,1.2,4.5c0.3,1.5,0.6,2.9,0.9,4.2c0.3-1.5,0.6-3,1-4.6
			c0.4-1.6,0.9-3.3,1.4-5.2l4.5-16.5h12.7v36h-8.4v-16c0-1.1,0-2.7,0.1-4.7c0.1-2,0.1-4.4,0.2-7l-6.9,27.7h-9.2l-6.8-27.7
			c0.1,3.2,0.2,6.1,0.2,8.6c0.1,2.6,0.1,4.5,0.1,6v13.1h-8.5V47.2z"/>
		<path class="st1" d="M179.4,59.5c2.5-2.5,5.9-3.8,10.3-3.8s7.9,1.3,10.4,3.8c2.5,2.5,3.8,6,3.8,10.4s-1.2,7.9-3.8,10.4
			c-2.5,2.5-6,3.8-10.4,3.8c-4.4,0-7.9-1.2-10.4-3.8s-3.7-6-3.7-10.5C175.7,65.5,176.9,62,179.4,59.5z M185.9,75.5
			c0.9,1.3,2.2,2,3.8,2c1.7,0,3-0.7,3.9-2c0.9-1.3,1.4-3.2,1.4-5.6c0-2.4-0.5-4.3-1.4-5.6c-0.9-1.3-2.2-2-3.9-2
			c-1.7,0-2.9,0.6-3.8,2c-0.9,1.3-1.3,3.1-1.3,5.6C184.6,72.3,185,74.2,185.9,75.5z"/>
		<path class="st1" d="M208.4,56.6h8.4v4.6c0.9-1.8,2.1-3.2,3.5-4s3.1-1.3,5.3-1.3v8.6l-1.1-0.1c-0.4,0-0.7,0-1.1,0
			c-1.3,0-2.4,0.2-3.3,0.6c-0.9,0.4-1.6,1-2.1,1.9c-0.3,0.6-0.6,1.4-0.7,2.4s-0.2,2.7-0.2,5v8.9h-8.7V56.6z"/>
		<path class="st1" d="M254.4,74.8c-0.8,2.9-2.3,5.2-4.6,6.8c-2.3,1.6-5.1,2.4-8.5,2.4c-4.1,0-7.4-1.3-9.8-3.8
			c-2.4-2.5-3.6-5.9-3.6-10.2c0-4.4,1.2-7.9,3.6-10.5c2.4-2.6,5.7-3.9,9.8-3.9c4.2,0,7.5,1.3,9.9,3.9c2.4,2.6,3.6,6.2,3.6,10.8
			c0,0.4,0,0.8,0,1c0,0.2,0,0.4,0,0.6h-18c0,1.9,0.4,3.3,1.2,4.3c0.8,1,2,1.5,3.6,1.5c1.2,0,2.1-0.2,2.9-0.7s1.3-1.2,1.6-2.2H254.4z
			 M246.5,67.1c0-1.7-0.5-3-1.4-4c-0.9-1-2.1-1.5-3.6-1.5c-1.4,0-2.6,0.5-3.4,1.4c-0.9,0.9-1.4,2.3-1.5,4.1H246.5z"/>
		<path class="st1" d="M308.6,69.2c-0.3,4.7-2,8.4-5,11c-3,2.6-7.1,3.9-12.2,3.9c-5.8,0-10.3-1.7-13.6-5.1c-3.3-3.4-5-8-5-13.9
			c0-5.9,1.6-10.5,4.9-13.9c3.3-3.4,7.7-5.1,13.4-5.1c5.2,0,9.3,1.3,12.3,3.8s4.7,6.1,5,10.8h-11.1c-0.2-1.8-0.8-3.2-1.8-4.2
			c-1-0.9-2.5-1.4-4.3-1.4c-2.3,0-4,0.8-5.1,2.5c-1.1,1.7-1.7,4.1-1.7,7.5c0,3.3,0.6,5.7,1.8,7.4c1.2,1.7,3,2.5,5.3,2.5
			c1.8,0,3.2-0.5,4.3-1.6c1.1-1,1.7-2.5,1.8-4.4H308.6z"/>
		<path class="st1" d="M316.9,51.4c3.3-3.4,7.9-5.1,13.7-5.1c5.8,0,10.3,1.7,13.7,5.1c3.3,3.4,5,8,5,13.9c0,5.8-1.7,10.5-5,13.9
			c-3.3,3.4-7.9,5.1-13.7,5.1c-5.8,0-10.3-1.7-13.7-5.1c-3.4-3.4-5-8-5-13.9C311.9,59.4,313.6,54.7,316.9,51.4z M325.3,72.7
			c1.1,1.6,2.9,2.4,5.4,2.4c2.4,0,4.2-0.8,5.3-2.4c1.1-1.6,1.7-4.1,1.7-7.5c0-3.4-0.6-5.9-1.7-7.5c-1.1-1.6-2.9-2.4-5.3-2.4
			c-2.4,0-4.2,0.8-5.4,2.4s-1.7,4.1-1.7,7.5C323.6,68.6,324.1,71.1,325.3,72.7z"/>
		<path class="st1" d="M358,51.4c3.3-3.4,7.9-5.1,13.7-5.1c5.8,0,10.3,1.7,13.7,5.1c3.3,3.4,5,8,5,13.9c0,5.8-1.7,10.5-5,13.9
			c-3.3,3.4-7.9,5.1-13.7,5.1c-5.8,0-10.3-1.7-13.7-5.1c-3.4-3.4-5-8-5-13.9C353,59.4,354.6,54.7,358,51.4z M366.3,72.7
			c1.1,1.6,2.9,2.4,5.4,2.4c2.4,0,4.2-0.8,5.3-2.4c1.1-1.6,1.7-4.1,1.7-7.5c0-3.4-0.6-5.9-1.7-7.5c-1.1-1.6-2.9-2.4-5.3-2.4
			c-2.4,0-4.2,0.8-5.4,2.4s-1.7,4.1-1.7,7.5C364.6,68.6,365.2,71.1,366.3,72.7z"/>
		<path class="st1" d="M395.6,47.2h11.6v26.4h15.7v9.6h-27.3V47.2z"/>
		<path class="st1" d="M167.2,107.2h9.3V120h12.6v-12.8h9.3v36h-9.3V128h-12.6v15.2h-9.3V107.2z"/>
		<path class="st1" d="M229.9,134.8c-0.8,2.9-2.3,5.2-4.6,6.8c-2.3,1.6-5.1,2.4-8.5,2.4c-4.1,0-7.4-1.2-9.8-3.8
			c-2.4-2.5-3.6-5.9-3.6-10.2c0-4.4,1.2-7.9,3.6-10.5c2.4-2.6,5.7-3.8,9.8-3.8c4.2,0,7.5,1.3,9.9,3.9c2.4,2.6,3.6,6.2,3.6,10.8
			c0,0.4,0,0.8,0,1s0,0.4,0,0.6h-18c0,1.9,0.4,3.3,1.2,4.3c0.8,1,2,1.5,3.5,1.5c1.2,0,2.1-0.2,2.9-0.7s1.3-1.2,1.6-2.2H229.9z
			 M222,127.1c0-1.7-0.5-3-1.4-4s-2.1-1.5-3.6-1.5c-1.4,0-2.6,0.5-3.4,1.4s-1.4,2.3-1.5,4.1H222z"/>
		<path class="st1" d="M250.6,143.2c-0.1-0.4-0.2-0.9-0.2-1.3c-0.1-0.5-0.1-0.9-0.2-1.4c-1.2,1.2-2.5,2.1-3.9,2.7
			c-1.4,0.6-2.9,0.9-4.6,0.9c-2.6,0-4.6-0.7-6.1-2.1s-2.2-3.3-2.2-5.7c0-2.2,0.6-4,1.8-5.4c1.2-1.4,2.9-2.3,5.3-2.9
			c1.3-0.3,3-0.6,5-1c3-0.5,4.5-1.2,4.5-2.1v-0.7c0-0.8-0.3-1.4-0.9-1.8c-0.6-0.4-1.4-0.6-2.6-0.6c-1.2,0-2.2,0.2-3,0.8
			s-1.2,1.3-1.4,2.3h-8c0.4-3,1.7-5.2,3.7-6.7s5-2.2,8.8-2.2c2.4,0,4.4,0.3,6,0.9s2.9,1.4,3.8,2.6c0.6,0.8,1.1,1.8,1.4,3
			s0.4,3,0.4,5.5V138c0,1.2,0.1,2.2,0.3,2.8c0.2,0.7,0.5,1.2,1,1.4v1H250.6z M246.3,131.8c-0.8,0.2-1.4,0.3-1.9,0.5
			c-1,0.3-1.8,0.7-2.2,1.1c-0.4,0.5-0.7,1.1-0.7,1.8c0,0.9,0.3,1.7,0.9,2.3c0.6,0.6,1.4,0.9,2.3,0.9c1.5,0,2.7-0.4,3.6-1.3
			c1-0.9,1.4-2,1.4-3.4v-3.1C249.2,131.1,248,131.5,246.3,131.8z"/>
		<path class="st1" d="M263.9,107.2h8.7v36h-8.7V107.2z"/>
		<path class="st1" d="M275.9,116.6h3.5v-7.5h8.7v7.5h4.5v5.3h-4.5v11.5c0,1.8,0.2,2.9,0.7,3.5c0.5,0.6,1.3,0.9,2.6,0.9h0.6
			c0.1,0,0.3,0,0.5,0v5.5c-0.9,0.2-1.8,0.3-2.7,0.4c-0.9,0.1-1.7,0.1-2.5,0.1c-3,0-5.1-0.7-6.2-2.2c-1.1-1.5-1.7-4.6-1.7-9.4v-10.3
			h-3.5V116.6z"/>
		<path class="st1" d="M296.6,107.2h8.7v12.9c1-1.4,2.2-2.5,3.5-3.2c1.3-0.7,2.9-1,4.7-1c2.8,0,4.9,0.8,6.3,2.3
			c1.5,1.5,2.2,3.8,2.2,6.7v18.3h-8.7v-13.4c0-3.1-0.3-5.1-0.8-6s-1.5-1.3-2.9-1.3c-1.5,0-2.7,0.5-3.3,1.5c-0.7,1-1.1,2.6-1.1,4.9
			v14.2h-8.7V107.2z"/>
		<path class="st1" d="M340.2,151.3c-0.6,1-1.4,1.6-2.2,2c-0.6,0.3-1.4,0.5-2.3,0.6c-0.9,0.1-2.4,0.2-4.7,0.2h-2.3v-6.9h1.7
			c1.6,0,2.7-0.2,3.3-0.6c0.6-0.4,0.9-1.1,0.9-2.1c0-0.7-0.4-2-1.2-4.1l-0.1-0.2l-9-23.5h9.4l5,18.1l5.1-18.1h9.3l-10.6,29.5
			C341.6,148.6,340.8,150.3,340.2,151.3z"/>
	</g>
</g>
<text transform="matrix(1 0 0 1 83.0661 -110.2397)" style="display:none;"><tspan x="0" y="0" style="display:inline;fill:#E58774; font-family:'Swiss721Heavy'; font-size:50px;">A More </tspan><tspan x="193.2" y="0" style="display:inline;fill:#E58774; font-family:'Swiss721Black'; font-size:50px;">COOL</tspan><tspan x="346.4" y="0" style="display:inline;fill:#E58774; font-family:'Swiss721Heavy'; font-size:50px;"> </tspan><tspan x="85.9" y="60" style="display:inline;fill:#E58774; font-family:'Swiss721Heavy'; font-size:50px;">Healthy</tspan></text>
</svg>
