<?xml version="1.0" encoding="utf-8"?>
<!-- Generator: Adobe Illustrator 26.1.0, SVG Export Plug-In . SVG Version: 6.00 Build 0)  -->
<svg version="1.1" id="Layer_1" xmlns="http://www.w3.org/2000/svg" xmlns:xlink="http://www.w3.org/1999/xlink" x="0px" y="0px"
	 viewBox="0 0 500.5 200.3" style="enable-background:new 0 0 500.5 200.3;" xml:space="preserve">
<style type="text/css">
	.st0{fill:#E8F6FD;}
	.st1{fill:#E58774;}
</style>
<g>
	<rect class="st0" width="500.5" height="200.3"/>
	<g>
		<path class="st1" d="M84.3,85.5c-2.8,2.4-6.4,3.6-10.8,3.6c-5.3,0-9.5-1.7-12.7-5.2c-3.2-3.4-4.8-8-4.8-13.6
			c0-5.8,1.6-10.5,4.9-14c3.3-3.5,7.7-5.2,13.2-5.2c4.4,0,7.9,1.1,10.7,3.5c2.8,2.3,4.3,5.4,4.7,9.4h-8.7c-0.4-1.7-1.2-3-2.4-3.9
			c-1.2-0.9-2.7-1.3-4.7-1.3c-2.6,0-4.6,1-6.1,3s-2.2,4.8-2.2,8.4c0,3.5,0.7,6.2,2.1,8.2c1.4,2,3.4,2.9,6,2.9c2.1,0,3.7-0.5,5-1.5
			s2-2.5,2.3-4.4h8.6C88.8,79.8,87.1,83.2,84.3,85.5z"/>
		<path class="st1" d="M96.5,64.4c2.5-2.5,5.9-3.8,10.3-3.8c4.4,0,7.9,1.3,10.4,3.8c2.5,2.5,3.8,6,3.8,10.4s-1.2,7.9-3.8,10.4
			s-6,3.8-10.4,3.8c-4.4,0-7.9-1.2-10.4-3.8s-3.7-6-3.7-10.5C92.8,70.4,94,66.9,96.5,64.4z M103,80.4c0.9,1.3,2.2,2,3.8,2
			c1.7,0,3-0.7,3.9-2c0.9-1.3,1.4-3.2,1.4-5.6s-0.5-4.2-1.4-5.5c-0.9-1.3-2.2-2-3.9-2c-1.7,0-2.9,0.6-3.8,2
			c-0.9,1.3-1.3,3.1-1.3,5.5C101.7,77.2,102.1,79.1,103,80.4z"/>
		<path class="st1" d="M125.5,61.6h8.5v3.7c0.9-1.4,2-2.5,3.3-3.2s2.9-1.1,4.7-1.1c3.1,0,5.4,0.8,6.8,2.3c1.4,1.5,2.1,4.1,2.1,7.6
			v17.3h-8.7V74.8c0-3.1-0.3-5.1-0.8-6c-0.5-0.8-1.5-1.3-2.9-1.3c-1.5,0-2.7,0.5-3.4,1.5c-0.7,1-1.1,2.6-1.1,4.9v14.2h-8.7V61.6z"/>
		<path class="st1" d="M154.1,61.6h3.6v-7.5h8.7v7.5h4.5v5.3h-4.5v11.5c0,1.8,0.2,2.9,0.7,3.5c0.5,0.6,1.3,0.8,2.6,0.8h0.6
			c0.1,0,0.3,0,0.5,0v5.5c-0.9,0.2-1.8,0.3-2.7,0.4s-1.7,0.2-2.5,0.2c-3,0-5.1-0.7-6.2-2.2s-1.7-4.6-1.7-9.4V66.8h-3.6V61.6z"/>
		<path class="st1" d="M174.7,61.6h8.4v4.6c0.9-1.8,2.1-3.2,3.5-4c1.4-0.8,3.1-1.3,5.3-1.3v8.6l-1.1-0.1c-0.4,0-0.7,0-1.1,0
			c-1.3,0-2.4,0.2-3.3,0.6c-0.9,0.4-1.6,1-2.1,1.8c-0.3,0.6-0.6,1.4-0.7,2.4s-0.2,2.7-0.2,5v8.9h-8.7V61.6z"/>
		<path class="st1" d="M195.8,52.2h8.7v7h-8.7V52.2z M195.8,61.6h8.7v26.6h-8.7V61.6z"/>
		<path class="st1" d="M219.2,52.2v12.8c0.9-1.4,2-2.4,3.4-3.1c1.4-0.7,2.9-1,4.7-1c3.2,0,5.9,1.3,8,4c2.1,2.6,3.1,6.1,3.1,10.3
			c0,4.2-1,7.5-3.1,10.1c-2.1,2.6-4.8,3.8-8.1,3.8c-1.7,0-3.2-0.3-4.5-1c-1.3-0.7-2.4-1.8-3.4-3.2v3.5h-8.7v-36H219.2z M228,69.4
			c-0.9-1.2-2.1-1.9-3.7-1.9c-1.6,0-2.9,0.6-3.8,1.8c-0.9,1.2-1.4,3-1.4,5.2c0,2.4,0.4,4.2,1.3,5.5c0.9,1.2,2.1,1.9,3.8,1.9
			c1.7,0,2.9-0.6,3.8-1.9s1.3-3.1,1.3-5.5C229.3,72.4,228.9,70.7,228,69.4z"/>
		<path class="st1" d="M268,88.1h-8.5v-3.7c-1,1.5-2.2,2.6-3.5,3.3c-1.3,0.7-2.8,1-4.5,1c-2.9,0-5.1-0.8-6.6-2.2s-2.2-3.7-2.2-6.7
			V61.6h8.7v14.9c0,2.2,0.3,3.7,0.8,4.5c0.5,0.8,1.5,1.2,2.8,1.2c1.5,0,2.6-0.5,3.3-1.5s1-2.6,1-4.9V61.6h8.7V88.1z"/>
		<path class="st1" d="M271.4,61.6h3.6v-7.5h8.7v7.5h4.5v5.3h-4.5v11.5c0,1.8,0.2,2.9,0.7,3.5c0.5,0.6,1.3,0.8,2.6,0.8h0.6
			c0.2,0,0.3,0,0.5,0v5.5c-0.9,0.2-1.8,0.3-2.7,0.4c-0.9,0.1-1.7,0.2-2.5,0.2c-3,0-5.1-0.7-6.2-2.2c-1.1-1.5-1.7-4.6-1.7-9.4V66.8
			h-3.6V61.6z"/>
		<path class="st1" d="M292,52.2h8.7v7H292V52.2z M292,61.6h8.7v26.6H292V61.6z"/>
		<path class="st1" d="M306.7,61.6h8.5v3.7c0.9-1.4,2-2.5,3.3-3.2c1.3-0.7,2.9-1.1,4.7-1.1c3.1,0,5.4,0.8,6.8,2.3
			c1.4,1.5,2.1,4.1,2.1,7.6v17.3h-8.7V74.8c0-3.1-0.3-5.1-0.8-6c-0.5-0.8-1.5-1.3-2.9-1.3c-1.5,0-2.7,0.5-3.3,1.5
			c-0.7,1-1.1,2.6-1.1,4.9v14.2h-8.7V61.6z"/>
		<path class="st1" d="M346.7,90.4c0.2,0.8,0.7,1.4,1.3,1.8c0.6,0.4,1.5,0.6,2.7,0.6c1.9,0,3.2-0.4,4-1.2c0.8-0.8,1.2-2.4,1.2-4.6
			v-2.8c-0.9,1.4-2.1,2.5-3.5,3.2c-1.4,0.7-3,1-4.8,1c-3.3,0-5.9-1.3-8-3.8c-2.1-2.5-3.1-5.8-3.1-9.8c0-4.1,1-7.5,3.1-10.1
			c2.1-2.6,4.8-3.8,8.1-3.8c1.8,0,3.4,0.3,4.8,1c1.3,0.7,2.6,1.8,3.6,3.2v-3.6h8.2v21.9c0,3.3-0.1,5.6-0.4,7
			c-0.2,1.4-0.7,2.5-1.2,3.4c-1,1.6-2.5,2.9-4.5,3.7c-2,0.9-4.4,1.3-7.2,1.3c-4,0-7.1-0.7-9.2-2.1c-2.1-1.4-3.4-3.5-3.8-6.4H346.7z
			 M346.9,79.7c0.9,1.2,2.1,1.8,3.7,1.8c1.6,0,2.9-0.6,3.8-1.8s1.4-2.9,1.4-5c0-2.3-0.4-4.1-1.3-5.3c-0.9-1.2-2.1-1.8-3.8-1.8
			c-1.7,0-2.9,0.6-3.8,1.8c-0.9,1.2-1.3,3-1.3,5.3C345.5,76.8,346,78.5,346.9,79.7z"/>
		<path class="st1" d="M382.3,61.6h3.6v-7.5h8.7v7.5h4.5v5.3h-4.5v11.5c0,1.8,0.2,2.9,0.7,3.5c0.5,0.6,1.3,0.8,2.6,0.8h0.6
			c0.2,0,0.3,0,0.5,0v5.5c-0.9,0.2-1.8,0.3-2.7,0.4c-0.9,0.1-1.7,0.2-2.5,0.2c-3,0-5.1-0.7-6.2-2.2c-1.1-1.5-1.7-4.6-1.7-9.4V66.8
			h-3.6V61.6z"/>
		<path class="st1" d="M405.2,64.4c2.5-2.5,5.9-3.8,10.3-3.8c4.4,0,7.9,1.3,10.4,3.8c2.5,2.5,3.8,6,3.8,10.4s-1.2,7.9-3.8,10.4
			c-2.5,2.5-6,3.8-10.4,3.8c-4.4,0-7.9-1.2-10.4-3.8s-3.7-6-3.7-10.5C401.4,70.4,402.7,66.9,405.2,64.4z M411.7,80.4
			c0.9,1.3,2.2,2,3.8,2c1.7,0,3-0.7,3.9-2c0.9-1.3,1.3-3.2,1.3-5.6s-0.4-4.2-1.3-5.5c-0.9-1.3-2.2-2-3.9-2c-1.7,0-2.9,0.6-3.8,2
			c-0.9,1.3-1.3,3.1-1.3,5.5C410.3,77.2,410.8,79.1,411.7,80.4z"/>
		<path class="st1" d="M25.7,124.4c2.5-2.5,5.9-3.8,10.3-3.8c4.4,0,7.9,1.3,10.4,3.8s3.8,6,3.8,10.4s-1.2,7.9-3.8,10.4
			s-6,3.8-10.4,3.8c-4.4,0-7.9-1.2-10.4-3.8c-2.5-2.5-3.7-6-3.7-10.5C22,130.4,23.2,126.9,25.7,124.4z M32.2,140.4
			c0.9,1.3,2.2,2,3.8,2c1.7,0,3-0.7,3.9-2s1.4-3.2,1.4-5.6s-0.5-4.2-1.4-5.6c-0.9-1.3-2.2-2-3.9-2c-1.7,0-2.9,0.7-3.8,2
			c-0.9,1.3-1.3,3.2-1.3,5.6C30.9,137.2,31.3,139.1,32.2,140.4z"/>
		<path class="st1" d="M79.9,148.1h-8.5v-3.7c-1,1.5-2.2,2.6-3.5,3.2c-1.3,0.7-2.8,1.1-4.5,1.1c-2.9,0-5.1-0.8-6.6-2.3
			c-1.5-1.5-2.2-3.7-2.2-6.7v-18.3h8.7v14.9c0,2.2,0.3,3.7,0.8,4.5c0.5,0.8,1.5,1.2,2.8,1.2c1.5,0,2.6-0.5,3.3-1.5
			c0.7-1,1.1-2.6,1.1-4.9v-14.2h8.7V148.1z"/>
		<path class="st1" d="M86,121.6h8.4v4.7c0.9-1.8,2.1-3.2,3.5-4c1.4-0.8,3.1-1.3,5.3-1.3v8.6l-1.1-0.1c-0.4,0-0.7,0-1.1,0
			c-1.3,0-2.4,0.2-3.3,0.6c-0.9,0.4-1.6,1-2.1,1.9c-0.3,0.6-0.6,1.4-0.7,2.4s-0.2,2.7-0.2,5v8.9H86V121.6z"/>
		<path class="st1" d="M148.1,137.8c-0.7,3.6-2.3,6.4-4.8,8.3c-2.5,1.9-5.7,2.9-9.7,2.9c-4.4,0-7.8-1.1-10.4-3.4s-3.8-5.4-3.8-9.2
			c0-4.8,1.4-8.6,4.2-11.4c2.8-2.8,6.6-4.3,11.2-4.3c4.2,0,7.6,1,10,2.9c2.4,1.9,3.7,4.6,3.7,8h-9.9c0-1.2-0.4-2.1-1-2.8
			s-1.5-1-2.7-1c-1.6,0-2.9,0.8-3.8,2.3c-0.9,1.6-1.4,3.7-1.4,6.4c0,1.7,0.3,3,1,3.9c0.7,0.9,1.7,1.3,3,1.3c1.1,0,2-0.4,2.8-1.1
			c0.8-0.7,1.3-1.7,1.5-2.9H148.1z"/>
		<path class="st1" d="M155.6,124.8c2.9-2.8,6.8-4.2,11.6-4.2c4.4,0,7.8,1.2,10.4,3.5c2.5,2.3,3.8,5.4,3.8,9.4
			c0,4.9-1.4,8.7-4.2,11.5c-2.8,2.8-6.7,4.2-11.6,4.2c-4.4,0-7.9-1.2-10.5-3.5c-2.6-2.3-3.9-5.5-3.9-9.4
			C151.3,131.4,152.7,127.6,155.6,124.8z M163.1,130.1c-0.9,1.5-1.4,3.7-1.4,6.5c0,1.7,0.3,3,1,3.9c0.6,0.9,1.6,1.3,3,1.3
			c1.6,0,2.8-0.8,3.8-2.3c0.9-1.5,1.4-3.6,1.4-6.2c0-1.8-0.3-3.2-1-4c-0.6-0.9-1.6-1.4-2.9-1.4C165.3,127.8,164,128.5,163.1,130.1z"
			/>
		<path class="st1" d="M187.6,121.6h9.3l-0.6,3.5c1.2-1.5,2.6-2.5,4-3.2c1.4-0.7,2.9-1,4.6-1c1.8,0,3.3,0.4,4.5,1.2
			c1.1,0.8,2,2,2.4,3.6c1.3-1.6,2.8-2.8,4.3-3.6c1.5-0.8,3.1-1.2,4.9-1.2c2.6,0,4.7,0.7,6.2,2.2c1.5,1.5,2.3,3.5,2.3,6
			c0,0.4,0,0.9-0.1,1.5c0,0.6-0.1,1.3-0.2,2l-2.1,15.7h-10l2-14.8l0.1-0.9c0-0.3,0-0.6,0-1c0-0.8-0.2-1.4-0.7-1.8
			c-0.5-0.4-1.1-0.7-2-0.7c-1.2,0-2.1,0.4-2.7,1.1s-1.1,2-1.3,3.7l-2.1,14.4h-10l2.1-14.9l0.1-0.9c0-0.3,0.1-0.6,0.1-0.8
			c0-0.9-0.2-1.5-0.7-2c-0.5-0.4-1.2-0.7-2.2-0.7c-1.1,0-1.9,0.4-2.5,1.1c-0.6,0.7-1,1.9-1.3,3.6l-2.2,14.6h-10L187.6,121.6z"/>
		<path class="st1" d="M236.2,121.6h9.3l-0.6,3.5c1.2-1.5,2.6-2.5,4-3.2c1.4-0.7,2.9-1,4.6-1c1.8,0,3.3,0.4,4.5,1.2
			c1.1,0.8,2,2,2.4,3.6c1.3-1.6,2.8-2.8,4.3-3.6s3.1-1.2,4.9-1.2c2.6,0,4.7,0.7,6.2,2.2s2.3,3.5,2.3,6c0,0.4,0,0.9-0.1,1.5
			c0,0.6-0.1,1.3-0.2,2l-2.1,15.7h-10l2-14.8l0.1-0.9c0-0.3,0-0.6,0-1c0-0.8-0.2-1.4-0.7-1.8c-0.5-0.4-1.1-0.7-2-0.7
			c-1.2,0-2.1,0.4-2.7,1.1c-0.6,0.8-1.1,2-1.3,3.7l-2.2,14.4h-10l2-14.9l0.1-0.9c0-0.3,0.1-0.6,0.1-0.8c0-0.9-0.2-1.5-0.7-2
			c-0.5-0.4-1.2-0.7-2.2-0.7c-1.1,0-1.9,0.4-2.5,1.1s-1,1.9-1.3,3.6l-2.2,14.6h-9.9L236.2,121.6z"/>
		<path class="st1" d="M300,144.5c-1.2,1.4-2.5,2.5-4,3.3c-1.5,0.8-3.1,1.1-4.9,1.1c-2.8,0-4.9-0.8-6.5-2.4
			c-1.6-1.6-2.4-3.8-2.4-6.7c0-0.4,0-0.8,0.1-1.1l0.1-1.2l2.3-16h10.3l-2,14.2l-0.1,0.9c0,0.3,0,0.6,0,1c0,1,0.3,1.8,0.9,2.3
			c0.6,0.6,1.4,0.8,2.4,0.8c1.3,0,2.3-0.4,3-1.1c0.7-0.8,1.2-2,1.5-3.6l2.2-14.5h10.2l-3.8,26.6h-9.3L300,144.5z"/>
		<path class="st1" d="M318.3,121.6h9.4l-0.4,3.5c1.3-1.4,2.7-2.5,4.1-3.2c1.5-0.7,3-1,4.8-1c2.7,0,4.8,0.8,6.4,2.3
			c1.6,1.5,2.3,3.6,2.3,6.2c0,0.5,0,1-0.1,1.6c-0.1,0.6-0.1,1.2-0.2,1.9l-2.1,15.3h-10.3l2-15c0.1-0.4,0.1-0.7,0.1-0.8
			c0-0.2,0-0.4,0-0.5c0-0.9-0.3-1.6-0.9-2.2c-0.6-0.5-1.4-0.8-2.3-0.8c-1.3,0-2.3,0.4-3,1.3c-0.7,0.9-1.2,2.2-1.5,3.9l-2,14.2h-10.2
			L318.3,121.6z"/>
		<path class="st1" d="M351.7,121.6h10.3l-3.9,26.6h-10.2L351.7,121.6z M353,111.3h10.2l-1,7.4h-10.4L353,111.3z"/>
		<path class="st1" d="M375.6,148.4c-1,0.1-1.9,0.1-2.7,0.1c-2.5,0-4.4-0.5-5.7-1.6c-1.4-1.1-2-2.6-2-4.5c0-0.4,0-0.8,0.1-1.3
			s0.1-1,0.2-1.7l1.7-11.9h-3.8l0.9-5.9h3.8l1.2-8.2h10l-1.2,8.2h4.1l-0.9,5.9h-4l-1.5,10.3c0,0.1,0,0.2,0,0.3c0,0.1,0,0.3,0,0.5
			c0,0.7,0.2,1.2,0.7,1.5c0.4,0.3,1.2,0.5,2.2,0.5h0.8c0.2,0,0.3,0,0.5,0l-1.1,7.7C377.6,148.2,376.6,148.3,375.6,148.4z"/>
		<path class="st1" d="M385.9,121.6h10.3l-3.9,26.6h-10.2L385.9,121.6z M387.3,111.3h10.3l-1,7.4h-10.4L387.3,111.3z"/>
		<path class="st1" d="M427.3,140.4c-0.8,2.8-2.5,4.9-5,6.4s-5.6,2.3-9.4,2.3c-4.5,0-8-1.1-10.6-3.4c-2.6-2.2-3.9-5.3-3.9-9.2
			c0-4.8,1.4-8.7,4.2-11.6c2.8-2.9,6.6-4.3,11.3-4.3c4.7,0,8.2,1.2,10.7,3.6c2.5,2.4,3.7,5.8,3.7,10.4c0,0.4,0,0.9-0.1,1.3l-0.1,1.3
			h-19.4v0.5c0,1.6,0.4,2.8,1.2,3.7c0.8,0.8,1.9,1.3,3.4,1.3c1,0,1.8-0.2,2.5-0.5s1.1-0.9,1.4-1.6H427.3z M418.4,131.9
			c0-1.5-0.4-2.7-1.1-3.6c-0.7-0.9-1.8-1.3-3.1-1.3s-2.4,0.4-3.3,1.3c-0.8,0.8-1.4,2-1.6,3.6H418.4z"/>
		<path class="st1" d="M440.9,139.3c0,1.2,0.3,2.1,0.9,2.8c0.6,0.7,1.5,1,2.6,1c0.9,0,1.7-0.2,2.3-0.6c0.6-0.4,0.9-1,0.9-1.6
			c0-0.6-0.2-1.1-0.7-1.5s-1.3-0.8-2.5-1.2c-0.1,0-0.2-0.1-0.3-0.1c-7.2-2.6-10.8-5.6-10.8-8.9c0-2.7,1.1-4.8,3.3-6.3
			s5.3-2.2,9.4-2.2c3.9,0,7,0.7,9.1,2.2c2.1,1.4,3.3,3.5,3.5,6.3h-9.4v-0.2c0-0.8-0.3-1.5-0.9-2c-0.6-0.5-1.4-0.7-2.5-0.7
			c-0.9,0-1.5,0.2-2,0.5c-0.5,0.3-0.7,0.8-0.7,1.4c0,0.6,0.3,1.1,0.8,1.5c0.5,0.4,1.6,0.9,3.2,1.4c0.4,0.1,1.1,0.3,2,0.6
			c2.3,0.7,4,1.3,5.1,2c1.1,0.6,2,1.5,2.7,2.5c0.7,1.1,1,2.2,1,3.4c0,3-1.1,5.3-3.4,7s-5.5,2.5-9.7,2.5c-4.3,0-7.6-0.8-10-2.5
			c-2.4-1.7-3.6-4-3.6-7v-0.2H440.9z"/>
		<path class="st1" d="M464.2,138.1h10.5l-1.5,10h-10.6L464.2,138.1z M467.7,112.2h10.9l-5.9,22.1h-5.9L467.7,112.2z"/>
	</g>
</g>
<text transform="matrix(1 0 0 1 200.382 -230.6809)" style="display:none;"><tspan x="0" y="0" style="display:inline;fill:#E58774; font-family:'Swiss721Heavy'; font-size:50px;">A More </tspan><tspan x="193.2" y="0" style="display:inline;fill:#E58774; font-family:'Swiss721Black'; font-size:50px;">COOL</tspan><tspan x="346.4" y="0" style="display:inline;fill:#E58774; font-family:'Swiss721Heavy'; font-size:50px;"> </tspan><tspan x="85.9" y="60" style="display:inline;fill:#E58774; font-family:'Swiss721Heavy'; font-size:50px;">Healthy</tspan></text>
<text transform="matrix(1 0 0 1 -164.5193 -278.8276)" style="display:none;"><tspan x="0" y="0" style="display:inline;fill:#E58774; font-family:'Swiss721Heavy'; font-size:50px;">A More </tspan><tspan x="193.2" y="0" style="display:inline;fill:#E58774; font-family:'Swiss721Black'; font-size:50px;">COOL</tspan><tspan x="346.4" y="0" style="display:inline;fill:#E58774; font-family:'Swiss721Heavy'; font-size:50px;"> </tspan><tspan x="85.9" y="60" style="display:inline;fill:#E58774; font-family:'Swiss721Heavy'; font-size:50px;">Healthy</tspan></text>
</svg>
