<?xml version="1.0" encoding="utf-8"?>
<!-- Generator: Adobe Illustrator 26.1.0, SVG Export Plug-In . SVG Version: 6.00 Build 0)  -->
<svg version="1.1" id="Layer_1" xmlns="http://www.w3.org/2000/svg" xmlns:xlink="http://www.w3.org/1999/xlink" x="0px" y="0px"
	 viewBox="0 0 500.5 200.3" style="enable-background:new 0 0 500.5 200.3;" xml:space="preserve">
<style type="text/css">
	.st0{fill:#E8F6FD;}
	.st1{fill:#E58774;}
</style>
<g>
	<rect class="st0" width="500.5" height="200.3"/>
	<g>
		<path class="st1" d="M59.7,65.4h20.7c4.4,0,7.7,0.1,9.7,0.4c2,0.2,3.8,0.6,5.2,1.1c2.6,1,4.5,2.5,5.9,4.5s2,4.5,2,7.4
			c0,2.3-0.5,4.3-1.5,6c-1,1.7-2.5,3.1-4.6,4.2c2.7,1,4.6,2.4,5.9,4.3c1.3,1.9,1.9,4.4,1.9,7.4c0,3-0.6,5.6-1.9,7.8
			c-1.2,2.2-3,3.9-5.4,5.1c-1.6,0.8-3.4,1.4-5.5,1.8s-5.5,0.5-10.2,0.5H59.7V65.4z M82,85.5c2.2,0,3.8-0.3,4.7-1s1.4-1.8,1.4-3.4
			c0-1.7-0.5-2.8-1.5-3.4c-1-0.6-3.2-0.9-6.8-0.9h-4.5v8.7H82z M82.8,103.9c2.5,0,4.2-0.4,5.3-1.1c1-0.7,1.6-1.9,1.6-3.6
			s-0.5-2.9-1.6-3.6s-2.9-1.1-5.4-1.1h-7.4v9.3H82.8z"/>
		<path class="st1" d="M112.6,65.4h40.3v12h-24.1v6.7h20.4v11.6h-20.4v7.8h25.1v12.3h-41.2V65.4z"/>
		<path class="st1" d="M232.3,96.2c-0.5,6.6-2.8,11.8-7,15.4s-9.9,5.5-17.1,5.5c-8.1,0-14.4-2.4-19-7.1c-4.6-4.7-6.9-11.2-6.9-19.4
			c0-8.2,2.3-14.7,6.9-19.4c4.6-4.7,10.8-7.1,18.8-7.1c7.3,0,13,1.8,17.2,5.3c4.2,3.5,6.5,8.6,7,15.1h-15.5
			c-0.2-2.6-1.1-4.5-2.5-5.8c-1.4-1.3-3.5-2-6-2c-3.2,0-5.6,1.2-7.1,3.5c-1.6,2.3-2.4,5.8-2.4,10.5c0,4.6,0.8,8,2.5,10.4
			c1.7,2.4,4.2,3.5,7.4,3.5c2.5,0,4.5-0.7,6-2.2c1.5-1.4,2.3-3.5,2.6-6.2L232.3,96.2z"/>
		<path class="st1" d="M244,71.1c4.7-4.7,11.1-7.1,19.1-7.1c8.1,0,14.4,2.4,19.1,7.1c4.7,4.7,7,11.2,7,19.4c0,8.2-2.3,14.6-7,19.4
			c-4.7,4.8-11,7.1-19.1,7.1c-8.1,0-14.5-2.4-19.1-7.1c-4.7-4.8-7-11.2-7-19.4C237,82.4,239.3,75.9,244,71.1z M255.7,101.1
			c1.6,2.2,4.1,3.4,7.5,3.4c3.4,0,5.8-1.1,7.4-3.3c1.6-2.2,2.4-5.7,2.4-10.5s-0.8-8.3-2.4-10.5c-1.6-2.2-4.1-3.3-7.4-3.3
			c-3.4,0-5.9,1.1-7.5,3.3c-1.6,2.2-2.4,5.7-2.4,10.5C253.3,95.3,254.1,98.8,255.7,101.1z"/>
		<path class="st1" d="M301.5,71.1c4.7-4.7,11.1-7.1,19.1-7.1s14.4,2.4,19.1,7.1s7,11.2,7,19.4c0,8.2-2.3,14.6-7,19.4
			c-4.7,4.8-11,7.1-19.1,7.1s-14.5-2.4-19.1-7.1c-4.7-4.8-7-11.2-7-19.4C294.4,82.4,296.8,75.9,301.5,71.1z M313.1,101.1
			c1.6,2.2,4.1,3.4,7.5,3.4c3.4,0,5.8-1.1,7.4-3.3c1.6-2.2,2.4-5.7,2.4-10.5s-0.8-8.3-2.4-10.5c-1.6-2.2-4.1-3.3-7.4-3.3
			c-3.4,0-5.9,1.1-7.5,3.3c-1.6,2.2-2.4,5.7-2.4,10.5C310.7,95.3,311.5,98.8,313.1,101.1z"/>
		<path class="st1" d="M354.1,65.4h16.2v37h22v13.4h-38.2V65.4z"/>
		<path class="st1" d="M411.5,65.4h16.4l17.7,50.3h-16l-1.9-6.7h-16l-2,6.7h-15.9L411.5,65.4z M424.8,98.5l-5-17.4l-5.1,17.4H424.8z
			"/>
	</g>
</g>
<text transform="matrix(1 0 0 1 -159.7826 -272.8846)" style="display:none;"><tspan x="0" y="0" style="display:inline;fill:#E58774; font-family:'Swiss721Heavy'; font-size:50px;">A More </tspan><tspan x="193.2" y="0" style="display:inline;fill:#E58774; font-family:'Swiss721Black'; font-size:50px;">COOL</tspan><tspan x="346.4" y="0" style="display:inline;fill:#E58774; font-family:'Swiss721Heavy'; font-size:50px;"> </tspan><tspan x="85.9" y="60" style="display:inline;fill:#E58774; font-family:'Swiss721Heavy'; font-size:50px;">Healthy</tspan></text>
</svg>
