<?xml version="1.0" encoding="utf-8"?>
<!-- Generator: Adobe Illustrator 26.1.0, SVG Export Plug-In . SVG Version: 6.00 Build 0)  -->
<svg version="1.1" id="Layer_1" xmlns="http://www.w3.org/2000/svg" xmlns:xlink="http://www.w3.org/1999/xlink" x="0px" y="0px"
	 viewBox="0 0 21.4 21.4" style="enable-background:new 0 0 21.4 21.4;" xml:space="preserve">
<style type="text/css">
	.st0{fill:#77CDD3;}
	.st1{fill:#FFFFFF;}
</style>
<g>
	<circle class="st0" cx="10.7" cy="10.7" r="10.7"/>
	<path class="st1" d="M12.1,10.7l4.5-4.5c0.4-0.4,0.4-1,0-1.4s-1-0.4-1.4,0l-4.5,4.5L6.2,4.7c-0.4-0.4-1-0.4-1.4,0s-0.4,1,0,1.4
		l4.5,4.5l-4.5,4.5c-0.4,0.4-0.4,1,0,1.4c0.2,0.2,0.5,0.3,0.7,0.3s0.5-0.1,0.7-0.3l4.5-4.5l4.5,4.5c0.2,0.2,0.5,0.3,0.7,0.3
		s0.5-0.1,0.7-0.3c0.4-0.4,0.4-1,0-1.4L12.1,10.7z"/>
</g>
</svg>
