<?xml version="1.0" encoding="utf-8"?>
<!-- Generator: Adobe Illustrator 26.1.0, SVG Export Plug-In . SVG Version: 6.00 Build 0)  -->
<svg version="1.1" id="Layer_1" xmlns="http://www.w3.org/2000/svg" xmlns:xlink="http://www.w3.org/1999/xlink" x="0px" y="0px"
	 viewBox="0 0 22 17" style="enable-background:new 0 0 22 17;" xml:space="preserve">
<style type="text/css">
	.st0{fill:#77CDD3;}
</style>
<g id="Hamburger_Menu">
	<path id="Menu-2" class="st0" d="M1.5,17C0.7,17,0,16.3,0,15.5C0,14.7,0.7,14,1.5,14h19c0.8,0,1.5,0.7,1.5,1.5
		c0,0.8-0.7,1.5-1.5,1.5H1.5z M1.5,10C0.7,10,0,9.3,0,8.5S0.7,7,1.5,7h19C21.3,7,22,7.7,22,8.5S21.3,10,20.5,10H1.5z M1.5,3
		C0.7,3,0,2.3,0,1.5S0.7,0,1.5,0h19C21.3,0,22,0.7,22,1.5S21.3,3,20.5,3H1.5z"/>
</g>
</svg>
